<?xml version="1.0" encoding="UTF-8"?>
<svg id="Layer_1" data-name="Layer 1" xmlns="http://www.w3.org/2000/svg" viewBox="0 0 687.91 397.16">
  <defs>
    <style>
      .cls-1 {
        fill: #057dbb;
      }
    </style>
  </defs>
  <polygon class="cls-1" points="264.77 264.77 264.77 199.9 329.65 199.9 329.65 135.02 394.53 135.02 394.53 67.51 327.02 67.51 327.02 132.39 262.15 132.39 262.15 197.27 197.27 197.27 197.27 262.15 135.02 262.15 135.02 197.27 67.51 197.27 67.51 264.77 132.39 264.77 132.39 329.65 199.9 329.65 199.9 264.77 264.77 264.77"/>
  <path class="cls-1" d="M381.74,196.67c2.36-1.15,4.28-2.72,5.75-4.72v-12.84h-12.04l-.25,6.09,5.15-.25v4.95c-.83.8-1.76,1.42-2.77,1.85-1.02.43-2.21.65-3.57.65-1.67,0-3.14-.47-4.42-1.4-1.28-.93-2.28-2.3-3-4.1-.72-1.8-1.07-3.98-1.07-6.54s.35-4.74,1.05-6.52c.7-1.78,1.66-3.15,2.87-4.1,1.21-.95,2.61-1.42,4.17-1.42,1.7,0,3.06.57,4.1,1.72,1.03,1.15,1.63,2.62,1.8,4.42h7.99c-.17-2.6-.9-4.8-2.2-6.59s-2.95-3.17-4.95-4.12c-2-.95-4.2-1.42-6.59-1.42-3.23,0-6.03.75-8.39,2.25-2.37,1.5-4.18,3.61-5.45,6.32-1.27,2.71-1.9,5.87-1.9,9.47s.63,6.74,1.9,9.44c1.26,2.7,3.04,4.8,5.32,6.32,2.28,1.52,4.97,2.27,8.07,2.27,3.26,0,6.08-.57,8.44-1.72Z"/>
  <polygon class="cls-1" points="423.45 191.8 406.11 191.8 406.11 162.93 398.87 162.93 398.87 197.8 423.45 197.8 423.45 191.8"/>
  <path class="cls-1" d="M455.97,196.2c2.26-1.47,4.02-3.55,5.27-6.24s1.87-5.9,1.87-9.59-.62-6.99-1.87-9.67c-1.25-2.68-3.01-4.75-5.27-6.19-2.27-1.45-4.91-2.17-7.94-2.17s-5.69.72-7.97,2.17c-2.28,1.45-4.05,3.52-5.3,6.22s-1.87,5.91-1.87,9.64.62,6.89,1.87,9.59,3.01,4.78,5.3,6.24c2.28,1.47,4.94,2.2,7.97,2.2s5.68-.73,7.94-2.2ZM441.36,186.86c-.65-1.8-.97-3.96-.97-6.49s.33-4.7.97-6.49c.65-1.8,1.56-3.17,2.72-4.12,1.17-.95,2.48-1.42,3.95-1.42s2.77.47,3.92,1.42c1.15.95,2.05,2.31,2.7,4.1.65,1.78.97,3.96.97,6.52s-.33,4.7-.97,6.49c-.65,1.8-1.55,3.17-2.7,4.12-1.15.95-2.46,1.42-3.92,1.42s-2.78-.47-3.95-1.42c-1.17-.95-2.07-2.32-2.72-4.12Z"/>
  <path class="cls-1" d="M493.54,196.57c1.9-.82,3.36-1.98,4.4-3.5,1.03-1.51,1.55-3.29,1.55-5.32,0-1.4-.24-2.64-.72-3.72-.48-1.08-1.18-1.99-2.1-2.72-.92-.73-2.02-1.32-3.32-1.75,1.1-.47,2.04-1.07,2.82-1.8.78-.73,1.4-1.59,1.85-2.57.45-.98.67-2.09.67-3.32,0-2.66-1.07-4.82-3.22-6.47-2.15-1.65-5.17-2.47-9.07-2.47h-13.64v34.87h14.14c2.53,0,4.75-.41,6.64-1.22ZM480,168.92h5.99c1.53,0,2.78.37,3.75,1.1.97.73,1.45,1.72,1.45,2.95s-.47,2.24-1.42,3.02c-.95.78-2.21,1.17-3.77,1.17h-5.99v-8.24ZM480,191.8v-8.64h6.49c1.73,0,3.08.38,4.05,1.15.96.77,1.45,1.83,1.45,3.2s-.48,2.34-1.45,3.12c-.97.78-2.25,1.17-3.85,1.17h-6.69Z"/>
  <path class="cls-1" d="M528.45,190.4l1.91,7.39h7.39l-9.49-34.87h-10.74l-9.44,34.87h7.19l1.95-7.39h11.23ZM522.87,168.17l2.1,8.74,1.94,7.49h-8.1l1.97-7.49,2.1-8.74Z"/>
  <polygon class="cls-1" points="573.32 191.8 555.99 191.8 555.99 162.93 548.74 162.93 548.74 197.8 573.32 197.8 573.32 191.8"/>
  <path class="cls-1" d="M313.27,261.51c1.96-.87,3.51-2.08,4.65-3.65,1.13-1.56,1.7-3.36,1.7-5.39s-.33-3.65-1-4.95c-.67-1.3-1.56-2.34-2.67-3.12-1.12-.78-2.33-1.4-3.65-1.85-1.32-.45-2.64-.83-3.97-1.15-1.33-.32-2.56-.65-3.67-1-1.12-.35-2.01-.81-2.67-1.37-.67-.57-1-1.32-1-2.25,0-1.3.49-2.3,1.47-3,.98-.7,2.22-1.05,3.72-1.05,1.03,0,1.99.21,2.87.62.88.42,1.62,1.02,2.2,1.82.58.8.89,1.8.92,3h7.29c-.07-2.43-.72-4.5-1.95-6.2-1.23-1.7-2.84-3-4.82-3.9-1.98-.9-4.16-1.35-6.52-1.35-2.56,0-4.8.45-6.69,1.35s-3.37,2.12-4.42,3.67c-1.05,1.55-1.57,3.29-1.57,5.22s.33,3.41,1,4.62c.67,1.22,1.56,2.19,2.67,2.92,1.12.73,2.34,1.33,3.67,1.8,1.33.47,2.66.87,3.97,1.2,1.31.33,2.53.69,3.65,1.07,1.12.38,2.01.87,2.67,1.47.67.6,1,1.4,1,2.4,0,1.4-.51,2.47-1.52,3.22-1.02.75-2.37,1.12-4.07,1.12-2.13,0-3.74-.62-4.82-1.85-1.08-1.23-1.62-3-1.62-5.29h-7.14c0,2.7.55,5.03,1.65,6.99s2.66,3.48,4.7,4.55c2.03,1.07,4.45,1.6,7.24,1.6,2.53,0,4.78-.43,6.74-1.3Z"/>
  <path class="cls-1" d="M344.14,262.8c2.83,0,5.28-.51,7.34-1.52,2.06-1.02,3.71-2.46,4.95-4.32,1.23-1.87,1.96-4.06,2.2-6.59h-7.89c-.13,1.33-.49,2.48-1.07,3.45-.58.97-1.34,1.71-2.27,2.22-.93.52-2.02.77-3.25.77-1.5,0-2.82-.47-3.97-1.4-1.15-.93-2.06-2.3-2.72-4.1-.67-1.8-1-3.98-1-6.54s.34-4.75,1.02-6.54c.68-1.8,1.62-3.16,2.82-4.1,1.2-.93,2.56-1.4,4.1-1.4,1.76,0,3.18.57,4.25,1.7,1.07,1.13,1.7,2.63,1.9,4.5h7.94c-.17-2.56-.91-4.75-2.22-6.57-1.32-1.81-3.01-3.21-5.07-4.17-2.07-.97-4.33-1.45-6.79-1.45-3.13,0-5.85.74-8.17,2.22-2.32,1.48-4.1,3.57-5.37,6.27-1.27,2.7-1.9,5.88-1.9,9.54s.62,6.75,1.85,9.47c1.23,2.71,2.98,4.82,5.25,6.32,2.26,1.5,4.96,2.25,8.09,2.25Z"/>
  <path class="cls-1" d="M375.67,248.67h3.62c.41.26.81.54,1.2.82,1.55,1.15,2.84,2.42,3.87,3.82,1.03,1.4,1.84,2.86,2.42,4.37.58,1.52.91,3.02.97,4.52h7.44c-.07-1.57-.34-3.16-.82-4.77-.48-1.62-1.22-3.18-2.2-4.7-.98-1.52-2.22-2.95-3.7-4.3-.32-.29-.66-.57-1-.84,1.53-.6,2.86-1.38,3.97-2.35,1.2-1.05,2.11-2.21,2.75-3.5.63-1.28.95-2.61.95-3.97,0-2.2-.54-4.07-1.62-5.62-1.08-1.55-2.57-2.74-4.47-3.57-1.9-.83-4.06-1.25-6.49-1.25h-14.14v34.87h7.24v-13.54ZM382.56,233.33c.97,0,1.83.18,2.6.55.77.37,1.37.88,1.82,1.55.45.67.67,1.45.67,2.35,0,.97-.25,1.82-.75,2.57-.5.75-1.18,1.32-2.05,1.72s-1.88.6-3.05.6h-6.14v-9.34h6.89Z"/>
  <polygon class="cls-1" points="431.97 256.21 413.48 256.21 413.48 247.17 425.57 247.17 425.57 241.17 413.48 241.17 413.48 233.33 431.77 233.33 431.77 227.33 406.19 227.33 406.19 262.2 431.97 262.2 431.97 256.21"/>
  <polygon class="cls-1" points="469.43 256.21 450.95 256.21 450.95 247.17 463.04 247.17 463.04 241.17 450.95 241.17 450.95 233.33 469.23 233.33 469.23 227.33 443.66 227.33 443.66 262.2 469.43 262.2 469.43 256.21"/>
  <polygon class="cls-1" points="487.02 248.47 486.42 236.83 497.86 262.2 507.05 262.2 507.05 227.33 500.16 227.33 500.16 241.07 500.66 253.11 489.32 227.33 480.12 227.33 480.12 262.2 487.02 262.2 487.02 248.47"/>
  <polygon class="cls-1" points="527.38 227.33 519.14 227.33 519.14 233.33 527.38 233.33 527.38 256.21 519.14 256.21 519.14 262.2 527.38 262.2 534.63 262.2 542.87 262.2 542.87 256.21 534.63 256.21 534.63 233.33 542.87 233.33 542.87 227.33 534.63 227.33 527.38 227.33"/>
  <polygon class="cls-1" points="575.09 241.07 575.59 253.11 564.25 227.33 555.06 227.33 555.06 262.2 561.96 262.2 561.96 248.47 561.36 236.83 572.8 262.2 581.99 262.2 581.99 227.33 575.09 227.33 575.09 241.07"/>
  <path class="cls-1" d="M608.12,249.62l5.15-.25v4.95c-.83.8-1.76,1.42-2.77,1.85-1.02.43-2.21.65-3.57.65-1.67,0-3.14-.47-4.42-1.4s-2.28-2.3-3-4.1c-.72-1.8-1.07-3.98-1.07-6.54s.35-4.74,1.05-6.52c.7-1.78,1.66-3.15,2.87-4.1,1.21-.95,2.61-1.42,4.17-1.42,1.7,0,3.06.57,4.1,1.72,1.03,1.15,1.63,2.62,1.8,4.42h7.99c-.17-2.6-.9-4.8-2.2-6.59-1.3-1.8-2.95-3.17-4.95-4.12-2-.95-4.2-1.42-6.59-1.42-3.23,0-6.03.75-8.39,2.25-2.37,1.5-4.18,3.61-5.45,6.32-1.27,2.71-1.9,5.87-1.9,9.47s.63,6.75,1.9,9.44c1.26,2.7,3.04,4.8,5.32,6.32,2.28,1.52,4.97,2.27,8.07,2.27,3.26,0,6.08-.57,8.44-1.72,2.36-1.15,4.28-2.72,5.75-4.72v-12.84h-12.04l-.25,6.09Z"/>
  <path class="cls-1" d="M246.97,308.81c-1.12-.78-2.33-1.4-3.65-1.85-1.32-.45-2.64-.83-3.97-1.15-1.33-.32-2.56-.65-3.67-1-1.12-.35-2.01-.81-2.67-1.37-.67-.57-1-1.32-1-2.25,0-1.3.49-2.3,1.47-3,.98-.7,2.22-1.05,3.72-1.05,1.03,0,1.99.21,2.87.62.88.42,1.62,1.02,2.2,1.82.58.8.89,1.8.92,3h7.29c-.07-2.43-.72-4.5-1.95-6.2-1.23-1.7-2.84-3-4.82-3.9-1.98-.9-4.16-1.35-6.52-1.35-2.56,0-4.8.45-6.69,1.35s-3.37,2.12-4.42,3.67c-1.05,1.55-1.57,3.29-1.57,5.22s.33,3.41,1,4.62c.67,1.22,1.56,2.19,2.67,2.92,1.12.73,2.34,1.33,3.67,1.8,1.33.47,2.66.87,3.97,1.2,1.31.33,2.53.69,3.65,1.07,1.12.38,2.01.87,2.67,1.47.67.6,1,1.4,1,2.4,0,1.4-.51,2.47-1.52,3.22-1.02.75-2.37,1.12-4.07,1.12-2.13,0-3.74-.62-4.82-1.85-1.08-1.23-1.62-3-1.62-5.29h-7.14c0,2.7.55,5.03,1.65,6.99s2.66,3.48,4.7,4.55c2.03,1.07,4.45,1.6,7.24,1.6,2.53,0,4.78-.43,6.74-1.3,1.96-.87,3.51-2.08,4.65-3.65,1.13-1.56,1.7-3.36,1.7-5.39s-.33-3.65-1-4.95c-.67-1.3-1.56-2.34-2.67-3.12Z"/>
  <polygon class="cls-1" points="269.58 311.58 281.67 311.58 281.67 305.59 269.58 305.59 269.58 297.74 287.86 297.74 287.86 291.75 262.28 291.75 262.28 326.62 288.06 326.62 288.06 320.62 269.58 320.62 269.58 311.58"/>
  <path class="cls-1" d="M323.21,317.15c-.98-1.52-2.21-2.95-3.7-4.3-.32-.29-.66-.57-1-.84,1.53-.6,2.86-1.38,3.97-2.35,1.2-1.05,2.11-2.21,2.75-3.5.63-1.28.95-2.61.95-3.97,0-2.2-.54-4.07-1.62-5.62-1.08-1.55-2.57-2.74-4.47-3.57-1.9-.83-4.06-1.25-6.49-1.25h-14.14v34.87h7.24v-13.54h3.62c.41.26.81.54,1.2.82,1.55,1.15,2.84,2.42,3.87,3.82,1.03,1.4,1.84,2.86,2.42,4.37.58,1.52.91,3.02.97,4.52h7.44c-.07-1.57-.34-3.16-.82-4.77-.48-1.62-1.22-3.18-2.2-4.7ZM313.59,297.74c.97,0,1.83.18,2.6.55.77.37,1.37.88,1.82,1.55.45.67.67,1.45.67,2.35,0,.97-.25,1.82-.75,2.57-.5.75-1.18,1.32-2.05,1.72-.87.4-1.88.6-3.05.6h-6.15v-9.34h6.89Z"/>
  <polygon class="cls-1" points="351.46 312.38 349.76 320.97 348.06 312.38 342.31 291.75 334.82 291.75 344.31 326.62 355.05 326.62 364.6 291.75 357.2 291.75 351.46 312.38"/>
  <polygon class="cls-1" points="383.48 291.75 375.24 291.75 375.24 297.74 383.48 297.74 383.48 320.62 375.24 320.62 375.24 326.62 383.48 326.62 390.72 326.62 398.97 326.62 398.97 320.62 390.72 320.62 390.72 297.74 398.97 297.74 398.97 291.75 390.72 291.75 383.48 291.75"/>
  <path class="cls-1" d="M430.56,318.23c-.58.97-1.34,1.71-2.27,2.22-.93.52-2.02.77-3.25.77-1.5,0-2.82-.47-3.97-1.4-1.15-.93-2.06-2.3-2.72-4.1s-1-3.98-1-6.54.34-4.75,1.02-6.54c.68-1.8,1.62-3.16,2.82-4.1,1.2-.93,2.56-1.4,4.1-1.4,1.76,0,3.18.57,4.25,1.7,1.07,1.13,1.7,2.63,1.9,4.5h7.94c-.17-2.56-.91-4.75-2.22-6.57-1.32-1.81-3.01-3.21-5.07-4.17-2.07-.97-4.33-1.45-6.79-1.45-3.13,0-5.85.74-8.17,2.22-2.32,1.48-4.11,3.57-5.37,6.27-1.27,2.7-1.9,5.88-1.9,9.54s.62,6.75,1.85,9.47,2.98,4.82,5.25,6.32c2.26,1.5,4.96,2.25,8.09,2.25,2.83,0,5.28-.51,7.34-1.52,2.06-1.02,3.71-2.46,4.95-4.32,1.23-1.87,1.96-4.06,2.2-6.59h-7.89c-.13,1.33-.49,2.48-1.07,3.45Z"/>
  <polygon class="cls-1" points="456.92 311.58 469.01 311.58 469.01 305.59 456.92 305.59 456.92 297.74 475.2 297.74 475.2 291.75 449.62 291.75 449.62 326.62 475.4 326.62 475.4 320.62 456.92 320.62 456.92 311.58"/>
  <path class="cls-1" d="M509.25,308.81c-1.12-.78-2.33-1.4-3.65-1.85s-2.64-.83-3.97-1.15c-1.33-.32-2.56-.65-3.67-1s-2.01-.81-2.67-1.37-1-1.32-1-2.25c0-1.3.49-2.3,1.47-3s2.22-1.05,3.72-1.05c1.03,0,1.99.21,2.87.62.88.42,1.62,1.02,2.2,1.82.58.8.89,1.8.92,3h7.29c-.07-2.43-.72-4.5-1.95-6.2-1.23-1.7-2.84-3-4.82-3.9s-4.15-1.35-6.52-1.35c-2.57,0-4.8.45-6.69,1.35s-3.37,2.12-4.42,3.67c-1.05,1.55-1.57,3.29-1.57,5.22s.33,3.41,1,4.62c.67,1.22,1.56,2.19,2.67,2.92,1.12.73,2.34,1.33,3.67,1.8,1.33.47,2.66.87,3.97,1.2,1.32.33,2.53.69,3.65,1.07,1.12.38,2.01.87,2.67,1.47.67.6,1,1.4,1,2.4,0,1.4-.51,2.47-1.52,3.22-1.02.75-2.37,1.12-4.07,1.12-2.13,0-3.74-.62-4.82-1.85-1.08-1.23-1.62-3-1.62-5.29h-7.14c0,2.7.55,5.03,1.65,6.99,1.1,1.96,2.66,3.48,4.7,4.55,2.03,1.07,4.45,1.6,7.24,1.6,2.53,0,4.78-.43,6.74-1.3,1.96-.87,3.51-2.08,4.65-3.65,1.13-1.56,1.7-3.36,1.7-5.39s-.33-3.65-1-4.95c-.67-1.3-1.56-2.34-2.67-3.12Z"/>
</svg>